# xmcd
#
# Track frame offsets:
#	150
#	17790
#	38362
#	55405
#	68260
#	92502
#	115957
#	132835
#	152185
#	173685
#	190080
#
# Disc length: 2909 seconds
#
# Revision: 0
# Processed by: cddbd v1.5.1PL0 Copyright (c) Steve Scherf et al.
# Submitted via: audiograbber 1.83.01
#
DISCID=800b5b0b
DTITLE=Various Artist - Rhythm Country and Blues
DYEAR=1994
DGENRE=R&B
TTITLE0=Vince Gill and Gladys Knight - Ain't Nothing Like the Real Thing
TTITLE1=Al Green and Lyle Lovett - Funny How Time Slips Away
TTITLE2=Aaron Neville and Trisha Yearwood - I Fall to Pieces
TTITLE3=Little Richard and Tanya Tucker - Somethin' Else
TTITLE4=Patti Labelle and Travis Tritt - When Something Is Wrong With My Baby
TTITLE5=Sam Moore and Conway Twitty - Rainy Night in Georgia
TTITLE6=Clint Black and Pointer Sisters - Chain of Fools
TTITLE7=Natalie Cole and Reba McEntire - Since I Fell for You
TTITLE8=Chet Atkins and Allen Toussaint - Southern Nights
TTITLE9=Staple Singers and Marty Stuart - Weight
TTITLE10=George Jones and B.B. King - Patches
EXTD=
EXTT0=
EXTT1=
EXTT2=
EXTT3=
EXTT4=
EXTT5=
EXTT6=
EXTT7=
EXTT8=
EXTT9=
EXTT10=
PLAYORDER=
